<svg width="502" height="76" viewBox="0 0 502 76" fill="none" xmlns="http://www.w3.org/2000/svg">
<g clip-path="url(#clip0_618_26)">
<path d="M39.2306 50.2305C36.0224 50.2305 33.2371 51.9958 31.7246 54.5894C30.9748 55.8753 30.5127 57.3574 30.5127 58.9484C30.5127 63.752 34.4227 67.6663 39.2306 67.6663C44.0385 67.6663 47.9485 63.752 47.9485 58.9484C47.9485 57.3574 47.4908 55.8753 46.7367 54.5894C45.2241 51.9958 42.4432 50.2305 39.2306 50.2305Z" fill="#3B3C98"/>
<path d="M100.256 50.2305C97.0478 50.2305 94.2625 51.9958 92.7499 54.5894C92.0002 55.8753 91.5381 57.3574 91.5381 58.9484C91.5381 63.752 95.4481 67.6663 100.256 67.6663C105.064 67.6663 108.974 63.752 108.974 58.9484C108.974 57.3574 108.516 55.8753 107.762 54.5894C106.249 51.9958 103.469 50.2305 100.256 50.2305Z" fill="#3B3C98"/>
<path d="M126.41 41.5127V37.1537L100.256 29.6781L69.7433 11H21.7948V15.359H47.9485V19.7179H0V24.0769H52.3075V28.4358H8.71791V32.7948H30.5127V37.1537H21.7948V41.5127H4.35896V45.8717H26.1537V50.2306H21.7948V54.5896H8.71791V58.9485H26.1537C26.1537 57.4142 26.4675 55.9583 26.9557 54.5896C28.7604 49.5245 33.5465 45.8717 39.2306 45.8717C44.919 45.8717 49.7009 49.5245 51.5055 54.5896C51.9893 55.9583 52.3075 57.4142 52.3075 58.9485H87.1791C87.1791 57.4142 87.4929 55.9583 87.9811 54.5896C89.7858 49.5245 94.5719 45.8717 100.256 45.8717C105.944 45.8717 110.726 49.5245 112.531 54.5896C113.015 55.9583 113.333 57.4142 113.333 58.9485H126.41V54.5896H130.769V41.5127H126.41Z" fill="#3B3C98"/>
<path d="M169.015 45.82C171.465 45.82 174.055 45.155 174.93 41.62H182.945C181.86 50.37 175.7 51.56 169.015 51.56C161.63 51.56 154.945 50.125 154.945 38.75C154.945 27.34 161.63 25.975 169.015 25.975C175.7 25.975 181.86 27.13 182.945 35.915H174.93C174.055 32.345 171.465 31.715 169.015 31.715C166.005 31.715 162.785 32.66 162.785 38.75C162.785 44.84 166.005 45.82 169.015 45.82ZM204.685 51L202.83 46.205H193.1L191.245 51H182.845L192.19 26.535H203.74L213.12 51H204.685ZM195.27 40.5H200.66L197.965 33.5L195.27 40.5ZM239.803 51H231.263L227.413 41.62H222.653V51H214.813V26.5H233.713C235.288 26.5 236.793 27.13 237.913 28.25C239.033 29.37 239.663 30.91 239.663 32.485V35.67C239.663 38.19 238.088 40.43 235.708 41.27C235.638 41.305 235.568 41.34 235.498 41.34L239.803 51ZM222.653 32.24V35.915H230.423C230.423 35.915 231.788 35.915 231.788 34.06C231.788 32.24 230.423 32.24 230.423 32.24H222.653ZM276.712 37.035C276.712 37.035 282.977 37.525 283.957 41.725C284.202 42.74 284.132 43.965 283.607 45.435C283.607 45.435 283.572 45.435 283.572 45.47C281.367 50.755 276.187 51.56 270.622 51.56C263.937 51.56 257.812 50.405 256.727 41.725H264.742C265.652 45.085 268.172 45.82 270.622 45.82C271.777 45.82 273.072 45.645 274.122 45.05C274.857 44.665 275.697 43.545 275.032 42.67C274.997 42.635 274.997 42.635 274.962 42.6C274.507 42.11 273.702 41.9 273.072 41.76C272.337 41.585 265.302 40.57 264.532 40.465C264.532 40.465 258.687 39.905 257.462 35.6C257.182 34.585 257.147 33.43 257.637 32.065C259.842 26.745 265.057 25.975 270.622 25.975C277.272 25.975 283.397 27.095 284.517 35.74H276.502C275.592 32.415 273.037 31.715 270.622 31.715C268.767 31.715 267.542 32.24 266.842 32.8C266.282 33.29 265.757 34.165 266.282 34.865C266.737 35.46 268.032 35.775 268.837 35.915L276.712 37.035ZM305.828 26.535H313.703V51H305.828V41.62H294.908V51H287.068V26.535H294.908V35.915H305.828V26.535ZM330.48 25.975C337.83 25.975 344.55 27.34 344.55 38.75C344.55 50.125 337.83 51.56 330.48 51.56C323.095 51.56 316.41 50.125 316.41 38.75C316.41 27.34 323.095 25.975 330.48 25.975ZM330.48 45.82C333.49 45.82 336.675 44.84 336.675 38.75C336.675 32.66 333.49 31.715 330.48 31.715C327.47 31.715 324.25 32.66 324.25 38.75C324.25 44.84 327.47 45.82 330.48 45.82ZM377.208 26.535H385.643L376.263 51H367.058L364.993 45.68L362.963 51H353.723L344.378 26.535H352.778L359.498 44.035L361.948 37.7L357.643 26.535H363.803L364.993 29.685L366.218 26.535H372.343L368.073 37.7L370.488 44.035L377.208 26.535ZM399.523 45.82C401.973 45.82 404.563 45.155 405.438 41.62H413.453C412.368 50.37 406.208 51.56 399.523 51.56C392.138 51.56 385.453 50.125 385.453 38.75C385.453 27.34 392.138 25.975 399.523 25.975C406.208 25.975 412.368 27.13 413.453 35.915H405.438C404.563 32.345 401.973 31.715 399.523 31.715C396.513 31.715 393.293 32.66 393.293 38.75C393.293 44.84 396.513 45.82 399.523 45.82ZM435.193 51L433.338 46.205H423.608L421.753 51H413.353L422.698 26.535H434.248L443.628 51H435.193ZM425.778 40.5H431.168L428.473 33.5L425.778 40.5ZM463.538 37.035C463.538 37.035 469.803 37.525 470.783 41.725C471.028 42.74 470.958 43.965 470.433 45.435C470.433 45.435 470.398 45.435 470.398 45.47C468.193 50.755 463.013 51.56 457.448 51.56C450.763 51.56 444.638 50.405 443.553 41.725H451.568C452.478 45.085 454.998 45.82 457.448 45.82C458.603 45.82 459.898 45.645 460.948 45.05C461.683 44.665 462.523 43.545 461.858 42.67C461.823 42.635 461.823 42.635 461.788 42.6C461.333 42.11 460.528 41.9 459.898 41.76C459.163 41.585 452.128 40.57 451.358 40.465C451.358 40.465 445.513 39.905 444.288 35.6C444.008 34.585 443.973 33.43 444.463 32.065C446.668 26.745 451.883 25.975 457.448 25.975C464.098 25.975 470.223 27.095 471.343 35.74H463.328C462.418 32.415 459.863 31.715 457.448 31.715C455.593 31.715 454.368 32.24 453.668 32.8C453.108 33.29 452.583 34.165 453.108 34.865C453.563 35.46 454.858 35.775 455.663 35.915L463.538 37.035ZM499.235 32.24H481.735V35.915H497.73V41.62H481.735V45.295H499.235V51H473.895V26.535H499.235V32.24Z" fill="black"/>
</g>
<defs>
<clipPath id="clip0_618_26">
<rect width="501.28" height="75.3645" fill="white"/>
</clipPath>
</defs>
</svg>
